<svg xmlns="http://www.w3.org/2000/svg" viewBox="0 0 400 300" width="400" height="300">
        <rect width="100%" height="100%" fill="#050505"/>
        <defs>
            <filter id="glow">
                <feGaussianBlur stdDeviation="4.5" result="coloredBlur"/>
                <feMerge>
                    <feMergeNode in="coloredBlur"/>
                    <feMergeNode in="SourceGraphic"/>
                </feMerge>
            </filter>
        </defs>
        <line x1="0" y1="204" x2="400" y2="204" stroke="#3b82f6" stroke-opacity="0.2" stroke-width="1" /><line x1="0" y1="194" x2="400" y2="194" stroke="#3b82f6" stroke-opacity="0.2" stroke-width="1" /><line x1="0" y1="159" x2="400" y2="159" stroke="#3b82f6" stroke-opacity="0.2" stroke-width="1" /><line x1="0" y1="162" x2="400" y2="162" stroke="#3b82f6" stroke-opacity="0.2" stroke-width="1" /><line x1="0" y1="32" x2="400" y2="32" stroke="#3b82f6" stroke-opacity="0.2" stroke-width="1" /><line x1="227" y1="0" x2="227" y2="300" stroke="#3b82f6" stroke-opacity="0.2" stroke-width="1" /><line x1="0" y1="0" x2="0" y2="300" stroke="#3b82f6" stroke-opacity="0.2" stroke-width="1" /><line x1="354" y1="0" x2="354" y2="300" stroke="#3b82f6" stroke-opacity="0.2" stroke-width="1" /><line x1="58" y1="0" x2="58" y2="300" stroke="#3b82f6" stroke-opacity="0.2" stroke-width="1" /><line x1="57" y1="0" x2="57" y2="300" stroke="#3b82f6" stroke-opacity="0.2" stroke-width="1" />
        <g filter="url(#glow)">
            <rect x="180" y="185" width="108" height="108" fill="#3b82f6" fill-opacity="0.37" transform="rotate(81 234 239)" /><circle cx="239" cy="21" r="36" fill="#3b82f6" fill-opacity="0.36" /><rect x="24" y="36" width="43" height="43" fill="#3b82f6" fill-opacity="0.32" transform="rotate(89 45.5 57.5)" /><rect x="171" y="106" width="113" height="113" fill="#3b82f6" fill-opacity="0.38" transform="rotate(35 227.5 162.5)" /><rect x="211" y="52" width="30" height="30" fill="#3b82f6" fill-opacity="0.12" transform="rotate(48 226 67)" />
        </g>
        <rect width="100%" height="100%" fill="url(#grad)" fill-opacity="0.2"/>
        <linearGradient id="grad" x1="0%" y1="0%" x2="100%" y2="100%">
            <stop offset="0%" style="stop-color:#3b82f6;stop-opacity:0" />
            <stop offset="100%" style="stop-color:#3b82f6;stop-opacity:0.3" />
        </linearGradient>
        <text x="50%" y="50%" dominant-baseline="middle" text-anchor="middle" font-family="monospace" font-weight="bold" font-size="48" fill="white" style="text-shadow: 0 0 20px #3b82f6">CYP</text>
    </svg>