<svg xmlns="http://www.w3.org/2000/svg" viewBox="0 0 400 300" width="400" height="300">
        <rect width="100%" height="100%" fill="#050505"/>
        <defs>
            <filter id="glow">
                <feGaussianBlur stdDeviation="4.5" result="coloredBlur"/>
                <feMerge>
                    <feMergeNode in="coloredBlur"/>
                    <feMergeNode in="SourceGraphic"/>
                </feMerge>
            </filter>
        </defs>
        <line x1="0" y1="128" x2="400" y2="128" stroke="#3b82f6" stroke-opacity="0.2" stroke-width="1" /><line x1="0" y1="106" x2="400" y2="106" stroke="#3b82f6" stroke-opacity="0.2" stroke-width="1" /><line x1="0" y1="279" x2="400" y2="279" stroke="#3b82f6" stroke-opacity="0.2" stroke-width="1" /><line x1="0" y1="119" x2="400" y2="119" stroke="#3b82f6" stroke-opacity="0.2" stroke-width="1" /><line x1="0" y1="56" x2="400" y2="56" stroke="#3b82f6" stroke-opacity="0.2" stroke-width="1" /><line x1="33" y1="0" x2="33" y2="300" stroke="#3b82f6" stroke-opacity="0.2" stroke-width="1" /><line x1="211" y1="0" x2="211" y2="300" stroke="#3b82f6" stroke-opacity="0.2" stroke-width="1" /><line x1="69" y1="0" x2="69" y2="300" stroke="#3b82f6" stroke-opacity="0.2" stroke-width="1" /><line x1="40" y1="0" x2="40" y2="300" stroke="#3b82f6" stroke-opacity="0.2" stroke-width="1" /><line x1="216" y1="0" x2="216" y2="300" stroke="#3b82f6" stroke-opacity="0.2" stroke-width="1" />
        <g filter="url(#glow)">
            <rect x="271" y="126" width="43" height="43" fill="#3b82f6" fill-opacity="0.36" transform="rotate(81 292.5 147.5)" /><rect x="352" y="271" width="83" height="83" fill="#3b82f6" fill-opacity="0.29" transform="rotate(78 393.5 312.5)" /><circle cx="208" cy="110" r="45.5" fill="#3b82f6" fill-opacity="0.12" /><rect x="94" y="296" width="28" height="28" fill="#3b82f6" fill-opacity="0.14" transform="rotate(82 108 310)" />
        </g>
        <rect width="100%" height="100%" fill="url(#grad)" fill-opacity="0.2"/>
        <linearGradient id="grad" x1="0%" y1="0%" x2="100%" y2="100%">
            <stop offset="0%" style="stop-color:#3b82f6;stop-opacity:0" />
            <stop offset="100%" style="stop-color:#3b82f6;stop-opacity:0.3" />
        </linearGradient>
        <text x="50%" y="50%" dominant-baseline="middle" text-anchor="middle" font-family="monospace" font-weight="bold" font-size="48" fill="white" style="text-shadow: 0 0 20px #3b82f6">DTP</text>
    </svg>