<svg xmlns="http://www.w3.org/2000/svg" viewBox="0 0 400 300" width="400" height="300">
        <rect width="100%" height="100%" fill="#050505"/>
        <defs>
            <filter id="glow">
                <feGaussianBlur stdDeviation="4.5" result="coloredBlur"/>
                <feMerge>
                    <feMergeNode in="coloredBlur"/>
                    <feMergeNode in="SourceGraphic"/>
                </feMerge>
            </filter>
        </defs>
        <line x1="0" y1="279" x2="400" y2="279" stroke="#3b82f6" stroke-opacity="0.2" stroke-width="1" /><line x1="0" y1="119" x2="400" y2="119" stroke="#3b82f6" stroke-opacity="0.2" stroke-width="1" /><line x1="0" y1="56" x2="400" y2="56" stroke="#3b82f6" stroke-opacity="0.2" stroke-width="1" /><line x1="0" y1="24" x2="400" y2="24" stroke="#3b82f6" stroke-opacity="0.2" stroke-width="1" /><line x1="0" y1="158" x2="400" y2="158" stroke="#3b82f6" stroke-opacity="0.2" stroke-width="1" /><line x1="69" y1="0" x2="69" y2="300" stroke="#3b82f6" stroke-opacity="0.2" stroke-width="1" /><line x1="40" y1="0" x2="40" y2="300" stroke="#3b82f6" stroke-opacity="0.2" stroke-width="1" /><line x1="216" y1="0" x2="216" y2="300" stroke="#3b82f6" stroke-opacity="0.2" stroke-width="1" /><line x1="272" y1="0" x2="272" y2="300" stroke="#3b82f6" stroke-opacity="0.2" stroke-width="1" /><line x1="259" y1="0" x2="259" y2="300" stroke="#3b82f6" stroke-opacity="0.2" stroke-width="1" />
        <g filter="url(#glow)">
            <circle cx="203" cy="160" r="49.5" fill="#3b82f6" fill-opacity="0.22" /><rect x="234" y="69" width="82" height="82" fill="#3b82f6" fill-opacity="0.27" transform="rotate(32 275 110)" /><rect x="157" y="50" width="106" height="106" fill="#3b82f6" fill-opacity="0.17" transform="rotate(61 210 103)" /><rect x="362" y="135" width="81" height="81" fill="#3b82f6" fill-opacity="0.17" transform="rotate(79 402.5 175.5)" /><circle cx="349" cy="179" r="13.5" fill="#3b82f6" fill-opacity="0.29" /><circle cx="287" cy="18" r="16" fill="#3b82f6" fill-opacity="0.21" /><rect x="33" y="275" width="62" height="62" fill="#3b82f6" fill-opacity="0.40" transform="rotate(32 64 306)" />
        </g>
        <rect width="100%" height="100%" fill="url(#grad)" fill-opacity="0.2"/>
        <linearGradient id="grad" x1="0%" y1="0%" x2="100%" y2="100%">
            <stop offset="0%" style="stop-color:#3b82f6;stop-opacity:0" />
            <stop offset="100%" style="stop-color:#3b82f6;stop-opacity:0.3" />
        </linearGradient>
        <text x="50%" y="50%" dominant-baseline="middle" text-anchor="middle" font-family="monospace" font-weight="bold" font-size="48" fill="white" style="text-shadow: 0 0 20px #3b82f6">INC</text>
    </svg>