<svg xmlns="http://www.w3.org/2000/svg" viewBox="0 0 400 300" width="400" height="300">
        <rect width="100%" height="100%" fill="#050505"/>
        <defs>
            <filter id="glow">
                <feGaussianBlur stdDeviation="4.5" result="coloredBlur"/>
                <feMerge>
                    <feMergeNode in="coloredBlur"/>
                    <feMergeNode in="SourceGraphic"/>
                </feMerge>
            </filter>
        </defs>
        <line x1="0" y1="255" x2="400" y2="255" stroke="#22c55e" stroke-opacity="0.2" stroke-width="1" /><line x1="0" y1="117" x2="400" y2="117" stroke="#22c55e" stroke-opacity="0.2" stroke-width="1" /><line x1="0" y1="76" x2="400" y2="76" stroke="#22c55e" stroke-opacity="0.2" stroke-width="1" /><line x1="0" y1="181" x2="400" y2="181" stroke="#22c55e" stroke-opacity="0.2" stroke-width="1" /><line x1="0" y1="43" x2="400" y2="43" stroke="#22c55e" stroke-opacity="0.2" stroke-width="1" /><line x1="248" y1="0" x2="248" y2="300" stroke="#22c55e" stroke-opacity="0.2" stroke-width="1" /><line x1="353" y1="0" x2="353" y2="300" stroke="#22c55e" stroke-opacity="0.2" stroke-width="1" /><line x1="325" y1="0" x2="325" y2="300" stroke="#22c55e" stroke-opacity="0.2" stroke-width="1" /><line x1="142" y1="0" x2="142" y2="300" stroke="#22c55e" stroke-opacity="0.2" stroke-width="1" /><line x1="57" y1="0" x2="57" y2="300" stroke="#22c55e" stroke-opacity="0.2" stroke-width="1" />
        <g filter="url(#glow)">
            <rect x="131" y="69" width="76" height="76" fill="#22c55e" fill-opacity="0.17" transform="rotate(24 169 107)" /><rect x="354" y="128" width="29" height="29" fill="#22c55e" fill-opacity="0.24" transform="rotate(74 368.5 142.5)" /><rect x="386" y="20" width="72" height="72" fill="#22c55e" fill-opacity="0.11" transform="rotate(30 422 56)" /><circle cx="322" cy="74" r="38" fill="#22c55e" fill-opacity="0.30" /><circle cx="183" cy="145" r="48.5" fill="#22c55e" fill-opacity="0.23" /><rect x="218" y="75" width="28" height="28" fill="#22c55e" fill-opacity="0.14" transform="rotate(21 232 89)" />
        </g>
        <rect width="100%" height="100%" fill="url(#grad)" fill-opacity="0.2"/>
        <linearGradient id="grad" x1="0%" y1="0%" x2="100%" y2="100%">
            <stop offset="0%" style="stop-color:#22c55e;stop-opacity:0" />
            <stop offset="100%" style="stop-color:#22c55e;stop-opacity:0.3" />
        </linearGradient>
        <text x="50%" y="50%" dominant-baseline="middle" text-anchor="middle" font-family="monospace" font-weight="bold" font-size="48" fill="white" style="text-shadow: 0 0 20px #22c55e">MRFPE</text>
    </svg>