<svg xmlns="http://www.w3.org/2000/svg" viewBox="0 0 400 300" width="400" height="300">
        <rect width="100%" height="100%" fill="#050505"/>
        <defs>
            <filter id="glow">
                <feGaussianBlur stdDeviation="4.5" result="coloredBlur"/>
                <feMerge>
                    <feMergeNode in="coloredBlur"/>
                    <feMergeNode in="SourceGraphic"/>
                </feMerge>
            </filter>
        </defs>
        <line x1="0" y1="25" x2="400" y2="25" stroke="#3b82f6" stroke-opacity="0.2" stroke-width="1" /><line x1="0" y1="184" x2="400" y2="184" stroke="#3b82f6" stroke-opacity="0.2" stroke-width="1" /><line x1="0" y1="130" x2="400" y2="130" stroke="#3b82f6" stroke-opacity="0.2" stroke-width="1" /><line x1="0" y1="41" x2="400" y2="41" stroke="#3b82f6" stroke-opacity="0.2" stroke-width="1" /><line x1="0" y1="164" x2="400" y2="164" stroke="#3b82f6" stroke-opacity="0.2" stroke-width="1" /><line x1="120" y1="0" x2="120" y2="300" stroke="#3b82f6" stroke-opacity="0.2" stroke-width="1" /><line x1="23" y1="0" x2="23" y2="300" stroke="#3b82f6" stroke-opacity="0.2" stroke-width="1" /><line x1="85" y1="0" x2="85" y2="300" stroke="#3b82f6" stroke-opacity="0.2" stroke-width="1" /><line x1="4" y1="0" x2="4" y2="300" stroke="#3b82f6" stroke-opacity="0.2" stroke-width="1" /><line x1="10" y1="0" x2="10" y2="300" stroke="#3b82f6" stroke-opacity="0.2" stroke-width="1" />
        <g filter="url(#glow)">
            <circle cx="389" cy="274" r="34.5" fill="#3b82f6" fill-opacity="0.20" /><rect x="197" y="272" width="79" height="79" fill="#3b82f6" fill-opacity="0.10" transform="rotate(80 236.5 311.5)" /><rect x="208" y="269" width="95" height="95" fill="#3b82f6" fill-opacity="0.30" transform="rotate(19 255.5 316.5)" /><rect x="75" y="241" width="104" height="104" fill="#3b82f6" fill-opacity="0.25" transform="rotate(19 127 293)" /><circle cx="305" cy="53" r="59.5" fill="#3b82f6" fill-opacity="0.19" />
        </g>
        <rect width="100%" height="100%" fill="url(#grad)" fill-opacity="0.2"/>
        <linearGradient id="grad" x1="0%" y1="0%" x2="100%" y2="100%">
            <stop offset="0%" style="stop-color:#3b82f6;stop-opacity:0" />
            <stop offset="100%" style="stop-color:#3b82f6;stop-opacity:0.3" />
        </linearGradient>
        <text x="50%" y="50%" dominant-baseline="middle" text-anchor="middle" font-family="monospace" font-weight="bold" font-size="48" fill="white" style="text-shadow: 0 0 20px #3b82f6">MT</text>
    </svg>