<svg xmlns="http://www.w3.org/2000/svg" viewBox="0 0 400 300" width="400" height="300">
        <rect width="100%" height="100%" fill="#050505"/>
        <defs>
            <filter id="glow">
                <feGaussianBlur stdDeviation="4.5" result="coloredBlur"/>
                <feMerge>
                    <feMergeNode in="coloredBlur"/>
                    <feMergeNode in="SourceGraphic"/>
                </feMerge>
            </filter>
        </defs>
        <line x1="0" y1="162" x2="400" y2="162" stroke="#3b82f6" stroke-opacity="0.2" stroke-width="1" /><line x1="0" y1="32" x2="400" y2="32" stroke="#3b82f6" stroke-opacity="0.2" stroke-width="1" /><line x1="0" y1="170" x2="400" y2="170" stroke="#3b82f6" stroke-opacity="0.2" stroke-width="1" /><line x1="0" y1="0" x2="400" y2="0" stroke="#3b82f6" stroke-opacity="0.2" stroke-width="1" /><line x1="0" y1="265" x2="400" y2="265" stroke="#3b82f6" stroke-opacity="0.2" stroke-width="1" /><line x1="58" y1="0" x2="58" y2="300" stroke="#3b82f6" stroke-opacity="0.2" stroke-width="1" /><line x1="57" y1="0" x2="57" y2="300" stroke="#3b82f6" stroke-opacity="0.2" stroke-width="1" /><line x1="17" y1="0" x2="17" y2="300" stroke="#3b82f6" stroke-opacity="0.2" stroke-width="1" /><line x1="84" y1="0" x2="84" y2="300" stroke="#3b82f6" stroke-opacity="0.2" stroke-width="1" /><line x1="331" y1="0" x2="331" y2="300" stroke="#3b82f6" stroke-opacity="0.2" stroke-width="1" />
        <g filter="url(#glow)">
            <rect x="395" y="25" width="111" height="111" fill="#3b82f6" fill-opacity="0.17" transform="rotate(38 450.5 80.5)" /><rect x="158" y="56" width="28" height="28" fill="#3b82f6" fill-opacity="0.38" transform="rotate(47 172 70)" /><rect x="216" y="204" width="84" height="84" fill="#3b82f6" fill-opacity="0.13" transform="rotate(47 258 246)" />
        </g>
        <rect width="100%" height="100%" fill="url(#grad)" fill-opacity="0.2"/>
        <linearGradient id="grad" x1="0%" y1="0%" x2="100%" y2="100%">
            <stop offset="0%" style="stop-color:#3b82f6;stop-opacity:0" />
            <stop offset="100%" style="stop-color:#3b82f6;stop-opacity:0.3" />
        </linearGradient>
        <text x="50%" y="50%" dominant-baseline="middle" text-anchor="middle" font-family="monospace" font-weight="bold" font-size="48" fill="white" style="text-shadow: 0 0 20px #3b82f6">MUX</text>
    </svg>