<svg xmlns="http://www.w3.org/2000/svg" viewBox="0 0 400 300" width="400" height="300">
        <rect width="100%" height="100%" fill="#050505"/>
        <defs>
            <filter id="glow">
                <feGaussianBlur stdDeviation="4.5" result="coloredBlur"/>
                <feMerge>
                    <feMergeNode in="coloredBlur"/>
                    <feMergeNode in="SourceGraphic"/>
                </feMerge>
            </filter>
        </defs>
        <line x1="0" y1="231" x2="400" y2="231" stroke="#3b82f6" stroke-opacity="0.2" stroke-width="1" /><line x1="0" y1="7" x2="400" y2="7" stroke="#3b82f6" stroke-opacity="0.2" stroke-width="1" /><line x1="0" y1="42" x2="400" y2="42" stroke="#3b82f6" stroke-opacity="0.2" stroke-width="1" /><line x1="0" y1="163" x2="400" y2="163" stroke="#3b82f6" stroke-opacity="0.2" stroke-width="1" /><line x1="0" y1="75" x2="400" y2="75" stroke="#3b82f6" stroke-opacity="0.2" stroke-width="1" /><line x1="32" y1="0" x2="32" y2="300" stroke="#3b82f6" stroke-opacity="0.2" stroke-width="1" /><line x1="95" y1="0" x2="95" y2="300" stroke="#3b82f6" stroke-opacity="0.2" stroke-width="1" /><line x1="340" y1="0" x2="340" y2="300" stroke="#3b82f6" stroke-opacity="0.2" stroke-width="1" /><line x1="157" y1="0" x2="157" y2="300" stroke="#3b82f6" stroke-opacity="0.2" stroke-width="1" /><line x1="102" y1="0" x2="102" y2="300" stroke="#3b82f6" stroke-opacity="0.2" stroke-width="1" />
        <g filter="url(#glow)">
            <rect x="107" y="30" width="68" height="68" fill="#3b82f6" fill-opacity="0.27" transform="rotate(79 141 64)" /><rect x="330" y="45" width="22" height="22" fill="#3b82f6" fill-opacity="0.13" transform="rotate(86 341 56)" /><rect x="134" y="174" width="87" height="87" fill="#3b82f6" fill-opacity="0.26" transform="rotate(72 177.5 217.5)" /><rect x="295" y="130" width="65" height="65" fill="#3b82f6" fill-opacity="0.27" transform="rotate(43 327.5 162.5)" />
        </g>
        <rect width="100%" height="100%" fill="url(#grad)" fill-opacity="0.2"/>
        <linearGradient id="grad" x1="0%" y1="0%" x2="100%" y2="100%">
            <stop offset="0%" style="stop-color:#3b82f6;stop-opacity:0" />
            <stop offset="100%" style="stop-color:#3b82f6;stop-opacity:0.3" />
        </linearGradient>
        <text x="50%" y="50%" dominant-baseline="middle" text-anchor="middle" font-family="monospace" font-weight="bold" font-size="48" fill="white" style="text-shadow: 0 0 20px #3b82f6">RELAY</text>
    </svg>