<svg xmlns="http://www.w3.org/2000/svg" viewBox="0 0 400 300" width="400" height="300">
        <rect width="100%" height="100%" fill="#050505"/>
        <defs>
            <filter id="glow">
                <feGaussianBlur stdDeviation="4.5" result="coloredBlur"/>
                <feMerge>
                    <feMergeNode in="coloredBlur"/>
                    <feMergeNode in="SourceGraphic"/>
                </feMerge>
            </filter>
        </defs>
        <line x1="0" y1="164" x2="400" y2="164" stroke="#d97706" stroke-opacity="0.2" stroke-width="1" /><line x1="0" y1="270" x2="400" y2="270" stroke="#d97706" stroke-opacity="0.2" stroke-width="1" /><line x1="0" y1="163" x2="400" y2="163" stroke="#d97706" stroke-opacity="0.2" stroke-width="1" /><line x1="0" y1="17" x2="400" y2="17" stroke="#d97706" stroke-opacity="0.2" stroke-width="1" /><line x1="0" y1="282" x2="400" y2="282" stroke="#d97706" stroke-opacity="0.2" stroke-width="1" /><line x1="164" y1="0" x2="164" y2="300" stroke="#d97706" stroke-opacity="0.2" stroke-width="1" /><line x1="215" y1="0" x2="215" y2="300" stroke="#d97706" stroke-opacity="0.2" stroke-width="1" /><line x1="270" y1="0" x2="270" y2="300" stroke="#d97706" stroke-opacity="0.2" stroke-width="1" /><line x1="323" y1="0" x2="323" y2="300" stroke="#d97706" stroke-opacity="0.2" stroke-width="1" /><line x1="189" y1="0" x2="189" y2="300" stroke="#d97706" stroke-opacity="0.2" stroke-width="1" />
        <g filter="url(#glow)">
            <rect x="271" y="241" width="44" height="44" fill="#d97706" fill-opacity="0.27" transform="rotate(51 293 263)" /><circle cx="183" cy="145" r="48.5" fill="#d97706" fill-opacity="0.23" /><rect x="218" y="75" width="28" height="28" fill="#d97706" fill-opacity="0.14" transform="rotate(21 232 89)" /><circle cx="102" cy="181" r="17" fill="#d97706" fill-opacity="0.22" /><circle cx="325" cy="106" r="17" fill="#d97706" fill-opacity="0.36" />
        </g>
        <rect width="100%" height="100%" fill="url(#grad)" fill-opacity="0.2"/>
        <linearGradient id="grad" x1="0%" y1="0%" x2="100%" y2="100%">
            <stop offset="0%" style="stop-color:#d97706;stop-opacity:0" />
            <stop offset="100%" style="stop-color:#d97706;stop-opacity:0.3" />
        </linearGradient>
        <text x="50%" y="50%" dominant-baseline="middle" text-anchor="middle" font-family="monospace" font-weight="bold" font-size="48" fill="white" style="text-shadow: 0 0 20px #d97706">WSP1</text>
    </svg>