<svg xmlns="http://www.w3.org/2000/svg" viewBox="0 0 400 300" width="400" height="300">
        <rect width="100%" height="100%" fill="#050505"/>
        <defs>
            <filter id="glow">
                <feGaussianBlur stdDeviation="4.5" result="coloredBlur"/>
                <feMerge>
                    <feMergeNode in="coloredBlur"/>
                    <feMergeNode in="SourceGraphic"/>
                </feMerge>
            </filter>
        </defs>
        <line x1="0" y1="56" x2="400" y2="56" stroke="#3b82f6" stroke-opacity="0.2" stroke-width="1" /><line x1="0" y1="24" x2="400" y2="24" stroke="#3b82f6" stroke-opacity="0.2" stroke-width="1" /><line x1="0" y1="158" x2="400" y2="158" stroke="#3b82f6" stroke-opacity="0.2" stroke-width="1" /><line x1="0" y1="52" x2="400" y2="52" stroke="#3b82f6" stroke-opacity="0.2" stroke-width="1" /><line x1="0" y1="30" x2="400" y2="30" stroke="#3b82f6" stroke-opacity="0.2" stroke-width="1" /><line x1="216" y1="0" x2="216" y2="300" stroke="#3b82f6" stroke-opacity="0.2" stroke-width="1" /><line x1="272" y1="0" x2="272" y2="300" stroke="#3b82f6" stroke-opacity="0.2" stroke-width="1" /><line x1="259" y1="0" x2="259" y2="300" stroke="#3b82f6" stroke-opacity="0.2" stroke-width="1" /><line x1="212" y1="0" x2="212" y2="300" stroke="#3b82f6" stroke-opacity="0.2" stroke-width="1" /><line x1="216" y1="0" x2="216" y2="300" stroke="#3b82f6" stroke-opacity="0.2" stroke-width="1" />
        <g filter="url(#glow)">
            <rect x="213" y="237" width="25" height="25" fill="#3b82f6" fill-opacity="0.25" transform="rotate(50 225.5 249.5)" /><circle cx="249" cy="107" r="17.5" fill="#3b82f6" fill-opacity="0.17" /><rect x="66" y="259" width="87" height="87" fill="#3b82f6" fill-opacity="0.22" transform="rotate(37 109.5 302.5)" /><rect x="180" y="185" width="108" height="108" fill="#3b82f6" fill-opacity="0.37" transform="rotate(81 234 239)" /><circle cx="239" cy="21" r="36" fill="#3b82f6" fill-opacity="0.36" /><rect x="24" y="36" width="43" height="43" fill="#3b82f6" fill-opacity="0.32" transform="rotate(89 45.5 57.5)" /><rect x="171" y="106" width="113" height="113" fill="#3b82f6" fill-opacity="0.38" transform="rotate(35 227.5 162.5)" />
        </g>
        <rect width="100%" height="100%" fill="url(#grad)" fill-opacity="0.2"/>
        <linearGradient id="grad" x1="0%" y1="0%" x2="100%" y2="100%">
            <stop offset="0%" style="stop-color:#3b82f6;stop-opacity:0" />
            <stop offset="100%" style="stop-color:#3b82f6;stop-opacity:0.3" />
        </linearGradient>
        <text x="50%" y="50%" dominant-baseline="middle" text-anchor="middle" font-family="monospace" font-weight="bold" font-size="48" fill="white" style="text-shadow: 0 0 20px #3b82f6">IDN</text>
    </svg>