<svg xmlns="http://www.w3.org/2000/svg" viewBox="0 0 400 300" width="400" height="300">
        <rect width="100%" height="100%" fill="#050505"/>
        <defs>
            <filter id="glow">
                <feGaussianBlur stdDeviation="4.5" result="coloredBlur"/>
                <feMerge>
                    <feMergeNode in="coloredBlur"/>
                    <feMergeNode in="SourceGraphic"/>
                </feMerge>
            </filter>
        </defs>
        <line x1="0" y1="236" x2="400" y2="236" stroke="#3b82f6" stroke-opacity="0.2" stroke-width="1" /><line x1="0" y1="216" x2="400" y2="216" stroke="#3b82f6" stroke-opacity="0.2" stroke-width="1" /><line x1="0" y1="98" x2="400" y2="98" stroke="#3b82f6" stroke-opacity="0.2" stroke-width="1" /><line x1="0" y1="142" x2="400" y2="142" stroke="#3b82f6" stroke-opacity="0.2" stroke-width="1" /><line x1="0" y1="278" x2="400" y2="278" stroke="#3b82f6" stroke-opacity="0.2" stroke-width="1" /><line x1="43" y1="0" x2="43" y2="300" stroke="#3b82f6" stroke-opacity="0.2" stroke-width="1" /><line x1="102" y1="0" x2="102" y2="300" stroke="#3b82f6" stroke-opacity="0.2" stroke-width="1" /><line x1="42" y1="0" x2="42" y2="300" stroke="#3b82f6" stroke-opacity="0.2" stroke-width="1" /><line x1="12" y1="0" x2="12" y2="300" stroke="#3b82f6" stroke-opacity="0.2" stroke-width="1" /><line x1="158" y1="0" x2="158" y2="300" stroke="#3b82f6" stroke-opacity="0.2" stroke-width="1" />
        <g filter="url(#glow)">
            <rect x="176" y="107" width="72" height="72" fill="#3b82f6" fill-opacity="0.17" transform="rotate(29 212 143)" /><rect x="153" y="193" width="23" height="23" fill="#3b82f6" fill-opacity="0.39" transform="rotate(1 164.5 204.5)" /><circle cx="34" cy="271" r="13.5" fill="#3b82f6" fill-opacity="0.32" /><rect x="159" y="116" width="45" height="45" fill="#3b82f6" fill-opacity="0.36" transform="rotate(40 181.5 138.5)" /><rect x="6" y="104" width="83" height="83" fill="#3b82f6" fill-opacity="0.14" transform="rotate(79 47.5 145.5)" /><rect x="155" y="55" width="28" height="28" fill="#3b82f6" fill-opacity="0.35" transform="rotate(86 169 69)" />
        </g>
        <rect width="100%" height="100%" fill="url(#grad)" fill-opacity="0.2"/>
        <linearGradient id="grad" x1="0%" y1="0%" x2="100%" y2="100%">
            <stop offset="0%" style="stop-color:#3b82f6;stop-opacity:0" />
            <stop offset="100%" style="stop-color:#3b82f6;stop-opacity:0.3" />
        </linearGradient>
        <text x="50%" y="50%" dominant-baseline="middle" text-anchor="middle" font-family="monospace" font-weight="bold" font-size="48" fill="white" style="text-shadow: 0 0 20px #3b82f6">LVCC</text>
    </svg>