<svg xmlns="http://www.w3.org/2000/svg" viewBox="0 0 400 300" width="400" height="300">
        <rect width="100%" height="100%" fill="#050505"/>
        <defs>
            <filter id="glow">
                <feGaussianBlur stdDeviation="4.5" result="coloredBlur"/>
                <feMerge>
                    <feMergeNode in="coloredBlur"/>
                    <feMergeNode in="SourceGraphic"/>
                </feMerge>
            </filter>
        </defs>
        <line x1="0" y1="7" x2="400" y2="7" stroke="#3b82f6" stroke-opacity="0.2" stroke-width="1" /><line x1="0" y1="174" x2="400" y2="174" stroke="#3b82f6" stroke-opacity="0.2" stroke-width="1" /><line x1="0" y1="284" x2="400" y2="284" stroke="#3b82f6" stroke-opacity="0.2" stroke-width="1" /><line x1="0" y1="203" x2="400" y2="203" stroke="#3b82f6" stroke-opacity="0.2" stroke-width="1" /><line x1="0" y1="199" x2="400" y2="199" stroke="#3b82f6" stroke-opacity="0.2" stroke-width="1" /><line x1="74" y1="0" x2="74" y2="300" stroke="#3b82f6" stroke-opacity="0.2" stroke-width="1" /><line x1="208" y1="0" x2="208" y2="300" stroke="#3b82f6" stroke-opacity="0.2" stroke-width="1" /><line x1="211" y1="0" x2="211" y2="300" stroke="#3b82f6" stroke-opacity="0.2" stroke-width="1" /><line x1="117" y1="0" x2="117" y2="300" stroke="#3b82f6" stroke-opacity="0.2" stroke-width="1" /><line x1="397" y1="0" x2="397" y2="300" stroke="#3b82f6" stroke-opacity="0.2" stroke-width="1" />
        <g filter="url(#glow)">
            <rect x="366" y="149" width="46" height="46" fill="#3b82f6" fill-opacity="0.39" transform="rotate(0 389 172)" /><rect x="236" y="268" width="58" height="58" fill="#3b82f6" fill-opacity="0.37" transform="rotate(58 265 297)" /><circle cx="301" cy="66" r="33.5" fill="#3b82f6" fill-opacity="0.37" /><rect x="321" y="253" width="41" height="41" fill="#3b82f6" fill-opacity="0.16" transform="rotate(68 341.5 273.5)" /><rect x="71" y="297" width="28" height="28" fill="#3b82f6" fill-opacity="0.33" transform="rotate(55 85 311)" /><rect x="218" y="90" width="25" height="25" fill="#3b82f6" fill-opacity="0.14" transform="rotate(19 230.5 102.5)" /><rect x="38" y="55" width="29" height="29" fill="#3b82f6" fill-opacity="0.11" transform="rotate(18 52.5 69.5)" />
        </g>
        <rect width="100%" height="100%" fill="url(#grad)" fill-opacity="0.2"/>
        <linearGradient id="grad" x1="0%" y1="0%" x2="100%" y2="100%">
            <stop offset="0%" style="stop-color:#3b82f6;stop-opacity:0" />
            <stop offset="100%" style="stop-color:#3b82f6;stop-opacity:0.3" />
        </linearGradient>
        <text x="50%" y="50%" dominant-baseline="middle" text-anchor="middle" font-family="monospace" font-weight="bold" font-size="48" fill="white" style="text-shadow: 0 0 20px #3b82f6">OS</text>
    </svg>