<svg xmlns="http://www.w3.org/2000/svg" viewBox="0 0 400 300" width="400" height="300">
        <rect width="100%" height="100%" fill="#050505"/>
        <defs>
            <filter id="glow">
                <feGaussianBlur stdDeviation="4.5" result="coloredBlur"/>
                <feMerge>
                    <feMergeNode in="coloredBlur"/>
                    <feMergeNode in="SourceGraphic"/>
                </feMerge>
            </filter>
        </defs>
        <line x1="0" y1="18" x2="400" y2="18" stroke="#22c55e" stroke-opacity="0.2" stroke-width="1" /><line x1="0" y1="36" x2="400" y2="36" stroke="#22c55e" stroke-opacity="0.2" stroke-width="1" /><line x1="0" y1="71" x2="400" y2="71" stroke="#22c55e" stroke-opacity="0.2" stroke-width="1" /><line x1="0" y1="296" x2="400" y2="296" stroke="#22c55e" stroke-opacity="0.2" stroke-width="1" /><line x1="0" y1="25" x2="400" y2="25" stroke="#22c55e" stroke-opacity="0.2" stroke-width="1" /><line x1="367" y1="0" x2="367" y2="300" stroke="#22c55e" stroke-opacity="0.2" stroke-width="1" /><line x1="171" y1="0" x2="171" y2="300" stroke="#22c55e" stroke-opacity="0.2" stroke-width="1" /><line x1="142" y1="0" x2="142" y2="300" stroke="#22c55e" stroke-opacity="0.2" stroke-width="1" /><line x1="372" y1="0" x2="372" y2="300" stroke="#22c55e" stroke-opacity="0.2" stroke-width="1" /><line x1="158" y1="0" x2="158" y2="300" stroke="#22c55e" stroke-opacity="0.2" stroke-width="1" />
        <g filter="url(#glow)">
            <circle cx="168" cy="71" r="55" fill="#22c55e" fill-opacity="0.30" /><rect x="352" y="271" width="83" height="83" fill="#22c55e" fill-opacity="0.29" transform="rotate(78 393.5 312.5)" /><circle cx="208" cy="110" r="45.5" fill="#22c55e" fill-opacity="0.12" />
        </g>
        <rect width="100%" height="100%" fill="url(#grad)" fill-opacity="0.2"/>
        <linearGradient id="grad" x1="0%" y1="0%" x2="100%" y2="100%">
            <stop offset="0%" style="stop-color:#22c55e;stop-opacity:0" />
            <stop offset="100%" style="stop-color:#22c55e;stop-opacity:0.3" />
        </linearGradient>
        <text x="50%" y="50%" dominant-baseline="middle" text-anchor="middle" font-family="monospace" font-weight="bold" font-size="48" fill="white" style="text-shadow: 0 0 20px #22c55e">PTE</text>
    </svg>