<svg xmlns="http://www.w3.org/2000/svg" viewBox="0 0 400 300" width="400" height="300">
        <rect width="100%" height="100%" fill="#050505"/>
        <defs>
            <filter id="glow">
                <feGaussianBlur stdDeviation="4.5" result="coloredBlur"/>
                <feMerge>
                    <feMergeNode in="coloredBlur"/>
                    <feMergeNode in="SourceGraphic"/>
                </feMerge>
            </filter>
        </defs>
        <line x1="0" y1="186" x2="400" y2="186" stroke="#d97706" stroke-opacity="0.2" stroke-width="1" /><line x1="0" y1="264" x2="400" y2="264" stroke="#d97706" stroke-opacity="0.2" stroke-width="1" /><line x1="0" y1="243" x2="400" y2="243" stroke="#d97706" stroke-opacity="0.2" stroke-width="1" /><line x1="0" y1="106" x2="400" y2="106" stroke="#d97706" stroke-opacity="0.2" stroke-width="1" /><line x1="0" y1="43" x2="400" y2="43" stroke="#d97706" stroke-opacity="0.2" stroke-width="1" /><line x1="219" y1="0" x2="219" y2="300" stroke="#d97706" stroke-opacity="0.2" stroke-width="1" /><line x1="360" y1="0" x2="360" y2="300" stroke="#d97706" stroke-opacity="0.2" stroke-width="1" /><line x1="218" y1="0" x2="218" y2="300" stroke="#d97706" stroke-opacity="0.2" stroke-width="1" /><line x1="23" y1="0" x2="23" y2="300" stroke="#d97706" stroke-opacity="0.2" stroke-width="1" /><line x1="376" y1="0" x2="376" y2="300" stroke="#d97706" stroke-opacity="0.2" stroke-width="1" />
        <g filter="url(#glow)">
            <circle cx="322" cy="74" r="38" fill="#d97706" fill-opacity="0.30" /><circle cx="183" cy="145" r="48.5" fill="#d97706" fill-opacity="0.23" /><rect x="218" y="75" width="28" height="28" fill="#d97706" fill-opacity="0.14" transform="rotate(21 232 89)" /><circle cx="102" cy="181" r="17" fill="#d97706" fill-opacity="0.22" />
        </g>
        <rect width="100%" height="100%" fill="url(#grad)" fill-opacity="0.2"/>
        <linearGradient id="grad" x1="0%" y1="0%" x2="100%" y2="100%">
            <stop offset="0%" style="stop-color:#d97706;stop-opacity:0" />
            <stop offset="100%" style="stop-color:#d97706;stop-opacity:0.3" />
        </linearGradient>
        <text x="50%" y="50%" dominant-baseline="middle" text-anchor="middle" font-family="monospace" font-weight="bold" font-size="48" fill="white" style="text-shadow: 0 0 20px #d97706">WSP2</text>
    </svg>