<svg xmlns="http://www.w3.org/2000/svg" viewBox="0 0 400 300" width="400" height="300">
        <rect width="100%" height="100%" fill="#050505"/>
        <defs>
            <filter id="glow">
                <feGaussianBlur stdDeviation="4.5" result="coloredBlur"/>
                <feMerge>
                    <feMergeNode in="coloredBlur"/>
                    <feMergeNode in="SourceGraphic"/>
                </feMerge>
            </filter>
        </defs>
        <line x1="0" y1="163" x2="400" y2="163" stroke="#d97706" stroke-opacity="0.2" stroke-width="1" /><line x1="0" y1="17" x2="400" y2="17" stroke="#d97706" stroke-opacity="0.2" stroke-width="1" /><line x1="0" y1="282" x2="400" y2="282" stroke="#d97706" stroke-opacity="0.2" stroke-width="1" /><line x1="0" y1="123" x2="400" y2="123" stroke="#d97706" stroke-opacity="0.2" stroke-width="1" /><line x1="0" y1="161" x2="400" y2="161" stroke="#d97706" stroke-opacity="0.2" stroke-width="1" /><line x1="270" y1="0" x2="270" y2="300" stroke="#d97706" stroke-opacity="0.2" stroke-width="1" /><line x1="323" y1="0" x2="323" y2="300" stroke="#d97706" stroke-opacity="0.2" stroke-width="1" /><line x1="189" y1="0" x2="189" y2="300" stroke="#d97706" stroke-opacity="0.2" stroke-width="1" /><line x1="158" y1="0" x2="158" y2="300" stroke="#d97706" stroke-opacity="0.2" stroke-width="1" /><line x1="367" y1="0" x2="367" y2="300" stroke="#d97706" stroke-opacity="0.2" stroke-width="1" />
        <g filter="url(#glow)">
            <circle cx="98" cy="170" r="46.5" fill="#d97706" fill-opacity="0.34" /><rect x="193" y="231" width="22" height="22" fill="#d97706" fill-opacity="0.24" transform="rotate(12 204 242)" /><circle cx="32" cy="71" r="52.5" fill="#d97706" fill-opacity="0.18" /><rect x="241" y="43" width="82" height="82" fill="#d97706" fill-opacity="0.18" transform="rotate(79 282 84)" /><circle cx="57" cy="164" r="55" fill="#d97706" fill-opacity="0.21" />
        </g>
        <rect width="100%" height="100%" fill="url(#grad)" fill-opacity="0.2"/>
        <linearGradient id="grad" x1="0%" y1="0%" x2="100%" y2="100%">
            <stop offset="0%" style="stop-color:#d97706;stop-opacity:0" />
            <stop offset="100%" style="stop-color:#d97706;stop-opacity:0.3" />
        </linearGradient>
        <text x="50%" y="50%" dominant-baseline="middle" text-anchor="middle" font-family="monospace" font-weight="bold" font-size="48" fill="white" style="text-shadow: 0 0 20px #d97706">WSP3</text>
    </svg>